<?xml version="1.0" encoding="utf-8"?>
<!-- Generator: Adobe Illustrator 21.0.0, SVG Export Plug-In . SVG Version: 6.00 Build 0)  -->
<svg version="1.1" id="svg2985" inkscapeVersion="0.48.5 r10040" sodipodiDocname="Pontiac_logo.svg" xmlnsCc="http://creativecommons.org/ns#" xmlnsDc="http://purl.org/dc/elements/1.1/" xmlnsInkscape="http://www.inkscape.org/namespaces/inkscape" xmlnsRdf="http://www.w3.org/1999/02/22-rdf-syntax-ns#" xmlnsSodipodi="http://sodipodi.sourceforge.net/DTD/sodipodi-0.dtd" xmlnsSvg="http://www.w3.org/2000/svg"
	 xmlns="http://www.w3.org/2000/svg" xmlnsXlink="http://www.w3.org/1999/xlink" x="0px" y="0px" viewBox="0 0 362 362"
	 xmlSpace="preserve" width="20px" height="20px">
<sodipodi:namedview  bordercolor="#666666" borderopacity="1" gridtolerance="10" guidetolerance="10" id="namedview2987" inkscapeCurrent-layer="svg2985" inkscapeCx="169.60586" inkscapeCy="189.60948" inkscapePageopacity="0" inkscapePageshadow="2" inkscapeWindow-height="706" inkscapeWindow-maximized="1" inkscapeWindow-width="1366" inkscapeWindow-x="-8" inkscapeWindow-y="-8" inkscapeZoom="1.4864568" objecttolerance="10" pagecolor="#ffffff" showgrid="false">
	</sodipodi:namedview>
<g id="text3041" transform="scale(0.96431467,1.0370059)">
	<g id="g3062">
		<path d="M188.2,41.2L88.1,0c0,0,100.2,346.8,99.7,348.7L288.4,0.4L188.2,41.2z M100.4,12.8l88.1,35.8l88.1-35.4l-88.5,301.9
			C188.5,313.5,100.4,12.8,100.4,12.8z"/>
		<path d="M188.5,56.8l-78.7-31.6c0,0,78.7,265.6,78.3,267l79.1-266.7L188.5,56.8z M187.8,126.8l-6.7-23.8l-36.6-6.1l37.3-5.3
			l5.4-21.9l6.6,22.3l38.6,5.1l-39.3,5.4L187.8,126.8z"/>
	</g>
</g>
</svg>
