<?xml version="1.0" encoding="iso-8859-1"?>
<!-- Generator: Adobe Illustrator 19.0.0, SVG Export Plug-In . SVG Version: 6.00 Build 0)  -->
<svg version="1.1" id="Layer_1" xmlns="http://www.w3.org/2000/svg" xmlnsXlink="http://www.w3.org/1999/xlink" x="0px" y="0px"
	 viewBox="0 0 512 512" style="enable-background:new 0 0 512 512;" xml:space="preserve">
<path style="fill:#B0DACC;" d="M400.663,459.871v-10.684c0-79.564-65.099-144.663-144.663-144.663l0,0
	c-79.564,0-144.663,65.099-144.663,144.663v10.684c0,20.687,16.769,37.456,37.456,37.456h214.415
	C383.894,497.327,400.663,480.556,400.663,459.871z"/>
<g>
	<path style="fill:#211E48;" d="M363.208,512H148.791c-28.744,0-52.128-23.385-52.128-52.129v-10.684
		c0-87.859,71.478-159.337,159.337-159.337s159.337,71.478,159.337,159.337v10.684C415.337,488.615,391.952,512,363.208,512z
		 M256,319.196c-71.677,0-129.99,58.314-129.99,129.99v10.684c0,12.562,10.22,22.782,22.781,22.782h214.417
		c12.562,0,22.781-10.22,22.781-22.782v-10.684C385.99,377.51,327.677,319.196,256,319.196z"/>
	<path style="fill:#211E48;" d="M437.881,181.883h-29.347c0-84.109-68.427-152.536-152.534-152.536S103.466,97.774,103.466,181.883
		H74.119C74.119,81.592,155.709,0,256,0S437.881,81.592,437.881,181.883z"/>
	<path style="fill:#211E48;" d="M256,314.11c-71.105,0-128.954-57.849-128.954-128.954S184.895,56.202,256,56.202
		s128.954,57.849,128.954,128.954C384.954,256.263,327.105,314.11,256,314.11z M256,85.55c-54.924,0-99.607,44.684-99.607,99.607
		s44.682,99.607,99.607,99.607s99.607-44.684,99.607-99.607C355.607,130.233,310.924,85.55,256,85.55z"/>
</g>
<path style="fill:#B0DACC;" d="M140.961,162.995c0-7.005-3.558-13.564-9.497-17.28c-6.15-3.847-13.403-6.076-21.152-6.076l0,0
	c-22.065,0-40.117,18.053-40.117,40.117v26.911c0,22.065,18.053,40.117,40.117,40.117l0,0c7.749,0,15.002-2.229,21.152-6.076
	c5.938-3.715,9.497-10.274,9.497-17.28V162.995z"/>
<path style="fill:#211E48;" d="M110.313,261.46c-30.211,0-54.791-24.58-54.791-54.791v-26.911c0-30.211,24.58-54.791,54.791-54.791
	c10.241,0,20.247,2.873,28.936,8.311c10.26,6.418,16.387,17.528,16.387,29.718v60.436c0,12.191-6.128,23.3-16.39,29.72
	C130.559,258.585,120.552,261.46,110.313,261.46z M110.313,154.313c-14.031,0-25.444,11.415-25.444,25.444v26.911
	c0,14.031,11.413,25.444,25.444,25.444c4.729,0,9.351-1.328,13.368-3.842c1.61-1.007,2.607-2.861,2.607-4.841v-60.436
	c0-1.981-0.999-3.834-2.605-4.839C119.664,155.641,115.04,154.313,110.313,154.313z"/>
<path style="fill:#B0DACC;" d="M371.037,162.995c0-7.005,3.558-13.564,9.497-17.28c6.15-3.847,13.403-6.076,21.152-6.076l0,0
	c22.065,0,40.117,18.053,40.117,40.117v26.911c0,22.065-18.053,40.117-40.117,40.117l0,0c-7.749,0-15.002-2.229-21.152-6.076
	c-5.938-3.715-9.497-10.274-9.497-17.28V162.995L371.037,162.995z"/>
<g>
	<path style="fill:#211E48;" d="M401.687,261.46c-10.241,0-20.247-2.873-28.936-8.311c-10.26-6.418-16.387-17.528-16.387-29.718
		v-60.436c0-12.191,6.128-23.302,16.39-29.72c8.687-5.437,18.693-8.31,28.933-8.31c30.211,0,54.791,24.58,54.791,54.791v26.911
		C456.478,236.88,431.899,261.46,401.687,261.46z M401.687,154.313c-4.729,0-9.351,1.328-13.368,3.842
		c-1.61,1.007-2.607,2.861-2.607,4.841v60.436c0,1.979,0.999,3.834,2.605,4.839c4.019,2.515,8.643,3.843,13.371,3.843
		c14.031,0,25.444-11.415,25.444-25.444v-26.911C427.131,165.726,415.718,154.313,401.687,154.313z"/>
	<path style="fill:#211E48;" d="M369.475,244.92H265.293c-8.103,0-14.674-6.569-14.674-14.674s6.571-14.674,14.674-14.674h104.182
		c8.103,0,14.673,6.569,14.673,14.674S377.577,244.92,369.475,244.92z"/>
</g>
<g>
</g>
<g>
</g>
<g>
</g>
<g>
</g>
<g>
</g>
<g>
</g>
<g>
</g>
<g>
</g>
<g>
</g>
<g>
</g>
<g>
</g>
<g>
</g>
<g>
</g>
<g>
</g>
<g>
</g>
</svg>
