<?xml version="1.0" encoding="utf-8"?>
<!-- Generator: Adobe Illustrator 24.1.1, SVG Export Plug-In . SVG Version: 6.00 Build 0)  -->
<svg version="1.1" id="Layer_1" xmlns="http://www.w3.org/2000/svg" xmlnsXlink="http://www.w3.org/1999/xlink" x="0px" y="0px"
	 viewBox="0 0 512 512" style="enable-background:new 0 0 512 512;" xml:space="preserve">
<style type="text/css">
	.st0{fill:#FFFFFF;}
	.st1{fill:#FF0000;}
	.st2{fill-rule:evenodd;clip-rule:evenodd;fill:#FF0000;}
</style>
<g>
	<rect y="64" class="st0" width="512" height="384"/>
	<rect x="217.6" y="64" class="st1" width="76.8" height="384"/>
	<rect y="217.6" class="st1" width="512" height="76.8"/>
	<path class="st2" d="M117.5,362.5c0.8-13.5,3.2-24.9,3.2-24.9s-7.9,0.8-11.9,0.8c-3.9,0-11.9-0.8-11.9-0.8s2.4,11.5,3.2,24.9
		c-13.5-0.8-24.9-3.2-24.9-3.2s0.8,5.9,0.8,11.9c0,5.9-0.8,11.9-0.8,11.9s11.5-2.4,24.9-3.2c-0.8,13.5-3.2,24.9-3.2,24.9
		s5.9-0.8,11.9-0.8c5.9,0,11.9,0.8,11.9,0.8s-2.4-11.5-3.2-24.9c13.5,0.8,24.9,3.2,24.9,3.2s-0.8-7.9-0.8-11.9
		c0-3.9,0.8-11.9,0.8-11.9S130.9,361.7,117.5,362.5z M411.9,132.1c0.8-13.5,3.2-24.9,3.2-24.9s-7.9,0.8-11.9,0.8
		c-3.9,0-11.9-0.8-11.9-0.8s2.4,11.5,3.2,24.9c-13.5-0.8-24.9-3.2-24.9-3.2s0.8,5.9,0.8,11.9c0,5.9-0.8,11.9-0.8,11.9
		s11.5-2.4,24.9-3.2c-0.8,13.5-3.2,24.9-3.2,24.9s5.9-0.8,11.9-0.8c5.9,0,11.9,0.8,11.9,0.8s-2.4-11.5-3.2-24.9
		c13.5,0.8,24.9,3.2,24.9,3.2s-0.8-7.9-0.8-11.9c0-3.9,0.8-11.9,0.8-11.9S425.3,131.3,411.9,132.1z M117.5,132.1
		c0.8-13.5,3.2-24.9,3.2-24.9s-7.9,0.8-11.9,0.8c-3.9,0-11.9-0.8-11.9-0.8s2.4,11.5,3.2,24.9c-13.5-0.8-24.9-3.2-24.9-3.2
		s0.8,5.9,0.8,11.9c0,5.9-0.8,11.9-0.8,11.9s11.5-2.4,24.9-3.2c-0.8,13.5-3.2,24.9-3.2,24.9s5.9-0.8,11.9-0.8
		c5.9,0,11.9,0.8,11.9,0.8s-2.4-11.5-3.2-24.9c13.5,0.8,24.9,3.2,24.9,3.2s-0.8-7.9-0.8-11.9c0-3.9,0.8-11.9,0.8-11.9
		S130.9,131.3,117.5,132.1z M411.9,362.5c0.8-13.5,3.2-24.9,3.2-24.9s-7.9,0.8-11.9,0.8c-3.9,0-11.9-0.8-11.9-0.8s2.4,11.5,3.2,24.9
		c-13.5-0.8-24.9-3.2-24.9-3.2s0.8,5.9,0.8,11.9c0,5.9-0.8,11.9-0.8,11.9s11.5-2.4,24.9-3.2c-0.8,13.5-3.2,24.9-3.2,24.9
		s5.9-0.8,11.9-0.8c5.9,0,11.9,0.8,11.9,0.8s-2.4-11.5-3.2-24.9c13.5,0.8,24.9,3.2,24.9,3.2s-0.8-7.9-0.8-11.9
		c0-3.9,0.8-11.9,0.8-11.9S425.3,361.7,411.9,362.5z"/>
</g>
</svg>
